<svg width="16" height="16" viewBox="0 0 16 16" fill="none" xmlns="http://www.w3.org/2000/svg">
<path d="M1 5C1 3.89543 1.89543 3 3 3H13C14.1046 3 15 3.89543 15 5V10C15 11.1046 14.1046 12 13 12H3C1.89543 12 1 11.1046 1 10V5Z" fill="#F0F0F0"/>
<path fill-rule="evenodd" clip-rule="evenodd" d="M3 2H13C14.6569 2 16 3.34315 16 5V10C16 11.6569 14.6569 13 13 13H3C1.34315 13 0 11.6569 0 10V5C0 3.34315 1.34315 2 3 2ZM3 3C1.89543 3 1 3.89543 1 5V10C1 11.1046 1.89543 12 3 12H13C14.1046 12 15 11.1046 15 10V5C15 3.89543 14.1046 3 13 3H3Z" fill="#2AA9F1"/>
</svg>
