<svg width="16" height="16" viewBox="0 0 16 16" fill="none" xmlns="http://www.w3.org/2000/svg">
<g clip-path="url(#clip0_34_17)">
<path fill-rule="evenodd" clip-rule="evenodd" d="M10.642 12V10.655C10.642 10.545 10.592 10.475 10.492 10.445L6.89203 9.095C6.49203 8.955 6.17203 8.71 5.93203 8.36C5.69203 8.01 5.57203 7.625 5.57203 7.205V5.855C5.57203 5.485 5.66203 5.15 5.84203 4.85C6.02203 4.55 6.26203 4.31 6.56203 4.13C6.87203 3.95 7.20703 3.86 7.56703 3.86H10.447C10.807 3.86 11.137 3.95 11.437 4.13C11.737 4.31 11.977 4.55 12.157 4.85C12.337 5.15 12.427 5.485 12.427 5.855V6.26C12.427 6.45 12.357 6.61 12.217 6.74C12.087 6.87 11.927 6.935 11.737 6.935H11.332C11.142 6.935 10.977 6.87 10.837 6.74C10.707 6.61 10.642 6.45 10.642 6.26V5.855C10.642 5.715 10.577 5.645 10.447 5.645H7.56703C7.51703 5.645 7.46703 5.665 7.41703 5.705C7.37703 5.745 7.35703 5.795 7.35703 5.855V7.205C7.35703 7.325 7.40703 7.4 7.50703 7.43L11.122 8.78C11.512 8.92 11.827 9.165 12.067 9.515C12.307 9.865 12.427 10.245 12.427 10.655V12H13C14.1046 12 15 11.1046 15 10V5C15 3.89543 14.1046 3 13 3H3C1.89543 3 1 3.89543 1 5V10C1 11.1046 1.89543 12 3 12H5.57203V11.57C5.57203 11.38 5.63703 11.22 5.76703 11.09C5.90703 10.95 6.07203 10.88 6.26203 10.88H6.68203C6.86203 10.88 7.01703 10.95 7.14703 11.09C7.28703 11.22 7.35703 11.38 7.35703 11.57V12H10.642Z" fill="#F0F0F0"/>
<path fill-rule="evenodd" clip-rule="evenodd" d="M12.163 13C12.339 12.7027 12.427 12.376 12.427 12.02V12H13C14.1046 12 15 11.1046 15 10V5C15 3.89543 14.1046 3 13 3H3C1.89543 3 1 3.89543 1 5V10C1 11.1046 1.89543 12 3 12H5.57203V12.02C5.57203 12.376 5.66004 12.7027 5.83607 13L3 13C1.34315 13 0 11.6569 0 10V5C0 3.34315 1.34315 2 3 2H13C14.6569 2 16 3.34315 16 5V10C16 11.6569 14.6569 13 13 13L12.163 13ZM7.35703 12H10.642V12.02C10.642 12.07 10.622 12.12 10.582 12.17C10.542 12.21 10.497 12.23 10.447 12.23H7.56703C7.51703 12.23 7.46703 12.21 7.41703 12.17C7.37703 12.12 7.35703 12.07 7.35703 12.02V12Z" fill="#2AA9F1"/>
<path d="M11.1986 11.152C11.1986 11.488 11.1146 11.796 10.9466 12.076C10.7786 12.356 10.5546 12.58 10.2746 12.748C9.99456 12.916 9.68656 13 9.35056 13H6.66256C6.32656 13 6.0139 12.916 5.72456 12.748C5.44456 12.58 5.22056 12.356 5.05256 12.076C4.88456 11.796 4.80056 11.488 4.80056 11.152V10.732C4.80056 10.5547 4.86123 10.4053 4.98256 10.284C5.11323 10.1533 5.26723 10.088 5.44456 10.088H5.83656C6.00456 10.088 6.14923 10.1533 6.27056 10.284C6.40123 10.4053 6.46656 10.5547 6.46656 10.732V11.152C6.46656 11.1987 6.48523 11.2453 6.52256 11.292C6.56923 11.3293 6.6159 11.348 6.66256 11.348H9.35056C9.39723 11.348 9.43923 11.3293 9.47656 11.292C9.5139 11.2453 9.53256 11.1987 9.53256 11.152V9.878C9.53256 9.77533 9.4859 9.71 9.39256 9.682L6.03256 8.422C5.65923 8.29133 5.36056 8.06267 5.13656 7.736C4.91256 7.40933 4.80056 7.05 4.80056 6.658V5.398C4.80056 5.05267 4.88456 4.74 5.05256 4.46C5.22056 4.18 5.44456 3.956 5.72456 3.788C6.0139 3.62 6.32656 3.536 6.66256 3.536H9.35056C9.68656 3.536 9.99456 3.62 10.2746 3.788C10.5546 3.956 10.7786 4.18 10.9466 4.46C11.1146 4.74 11.1986 5.05267 11.1986 5.398V5.776C11.1986 5.95333 11.1332 6.10267 11.0026 6.224C10.8812 6.34533 10.7319 6.406 10.5546 6.406H10.1766C9.99923 6.406 9.84523 6.34533 9.71456 6.224C9.59323 6.10267 9.53256 5.95333 9.53256 5.776V5.398C9.53256 5.26733 9.4719 5.202 9.35056 5.202H6.66256C6.6159 5.202 6.56923 5.22067 6.52256 5.258C6.48523 5.29533 6.46656 5.342 6.46656 5.398V6.658C6.46656 6.77 6.51323 6.84 6.60656 6.868L9.98056 8.128C10.3446 8.25867 10.6386 8.48733 10.8626 8.814C11.0866 9.14067 11.1986 9.49533 11.1986 9.878V11.152Z" fill="#2AA9F1"/>
</g>
<defs>
<clipPath id="clip0_34_17">
<rect width="16" height="16" fill="white" transform="matrix(1 0 0 -1 0 16)"/>
</clipPath>
</defs>
</svg>
